<svg xmlns="http://www.w3.org/2000/svg" width="223.306" height="31.557" viewBox="0 0 223.306 31.557">
  <g id="Group_801" data-name="Group 801" transform="translate(-176 -683.116)">
    <g id="Group_800" data-name="Group 800">
      <path id="Icon_material-email" data-name="Icon material-email" d="M33.072,6H6.341A3.337,3.337,0,0,0,3.017,9.341L3,29.389a3.351,3.351,0,0,0,3.341,3.341H33.072a3.351,3.351,0,0,0,3.341-3.341V9.341A3.351,3.351,0,0,0,33.072,6Zm0,6.683L19.707,21.036,6.341,12.683V9.341l13.365,8.353L33.072,9.341Z" transform="translate(314.901 680.5)" fill="#fd7575"/>
      <path id="Icon_awesome-whatsapp" data-name="Icon awesome-whatsapp" d="M26.782,6.827A15.614,15.614,0,0,0,2.215,25.664L0,33.75l8.276-2.173a15.562,15.562,0,0,0,7.46,1.9h.007A15.76,15.76,0,0,0,31.5,17.866,15.671,15.671,0,0,0,26.782,6.827ZM15.743,30.846a12.951,12.951,0,0,1-6.609-1.807l-.471-.281L3.755,30.045l1.308-4.788-.309-.492a13,13,0,1,1,24.11-6.9,13.119,13.119,0,0,1-13.12,12.98Zm7.116-9.717c-.387-.2-2.306-1.139-2.665-1.266s-.619-.2-.879.2-1.005,1.266-1.237,1.533-.457.3-.844.1a10.617,10.617,0,0,1-5.309-4.641c-.4-.689.4-.64,1.146-2.13a.723.723,0,0,0-.035-.682c-.1-.2-.879-2.116-1.2-2.9-.316-.759-.64-.654-.879-.668s-.485-.014-.745-.014a1.445,1.445,0,0,0-1.041.485A4.383,4.383,0,0,0,7.8,14.4a7.641,7.641,0,0,0,1.589,4.036c.2.26,2.749,4.2,6.666,5.892,2.475,1.069,3.445,1.16,4.683.977a4,4,0,0,0,2.63-1.856,3.262,3.262,0,0,0,.225-1.856C23.505,21.417,23.245,21.319,22.859,21.129Z" transform="translate(367.806 680.866)" fill="#45d78e"/>
    </g>
    <g id="Group_786" data-name="Group 786" transform="translate(6 174)">
      <text id="Download_PDF" data-name="Download PDF" transform="translate(170 520)" fill="#624ba0" font-size="14" font-family="Averta-Regular"><tspan x="13.557" y="11">Download PDF</tspan></text>
      <g id="Rectangle" transform="translate(170 511)" fill="none" stroke="#624ba0" stroke-miterlimit="10" stroke-width="1">
        <rect width="124.416" height="29.672" rx="4" stroke="none"/>
        <rect x="0.5" y="0.5" width="123.416" height="28.672" rx="3.5" fill="none"/>
      </g>
    </g>
  </g>
</svg>
